# xmcd
#
# Track frame offsets: 
#        150
#        14409
#        30028
#        48182
#
# Disc length: 830 seconds
#
# Revision: 0
# Processed by: cddbd v1.5.2PL0 Copyright (c) Steve Scherf et al.
# Submitted via: ExactAudioCopy v1.1
#
DISCID=1e033c04
DTITLE=Joanna Smith - Georgia Mud
DYEAR=2011
DGENRE=Country
TTITLE0=Kissin' in Public
TTITLE1=Georgia Mud
TTITLE2=Hold My Hand
TTITLE3=Gettin' Married
EXTD=
EXTT0=
EXTT1=
EXTT2=
EXTT3=
PLAYORDER=
